# xmcd
#
# Track frame offsets: 
#        150
#        18149
#        48056
#        75366
#        97098
#        116417
#        133326
#        152156
#        182083
#        196355
#        211650
#        235245
#        258586
#        274236
#        306649
#        335113
#
# Disc length: 4673 seconds
#
# Revision: 0
# Processed by: cddbd v1.5.2PL0 Copyright (c) Steve Scherf et al.
# Submitted via: ExactAudioCopy v1.0b3
#
DISCID=e2123f10
DTITLE=Various Artist - Trance Charts Vol. 3 - CD 1
DYEAR=1900
DGENRE=
TTITLE0=Beam and Yanou - The Free Fall (Video Mix)
TTITLE1=Mr. Phillips - 7th Day (CJ Stone Remix)
TTITLE2=Human Force - Odyssee 3000
TTITLE3=Josh and Miri - Lost In Time
TTITLE4=Baracoa - Délirio (Venus Mix Edit)
TTITLE5=Karuma - On Y Va (Single Mix)
TTITLE6=Plastic Angel Vs. Agenda - Fabienne (Radio Vocal Mix)
TTITLE7=Storia Vera - La Galera (Original Mix)
TTITLE8=Cloud 5 - Fresh (Peter Luts Remix Edit)
TTITLE9=DJ 2 L8 - Reality (Radio Edit)
TTITLE10=Reverb Vs. Flash Gordon - Providence
TTITLE11=Altitude - Excession
TTITLE12=Renegade - Alter Ego
TTITLE13=DJ Beathoven - Obsession
TTITLE14=Silvio Ecomo - Standing (Hooligan Rmx)
TTITLE15=Nostrum - Night In Motion
EXTD=
EXTT0=
EXTT1=
EXTT2=
EXTT3=
EXTT4=
EXTT5=
EXTT6=
EXTT7=
EXTT8=
EXTT9=
EXTT10=
EXTT11=
EXTT12=
EXTT13=
EXTT14=
EXTT15=
PLAYORDER=
